<?xml version="1.0" encoding="UTF-8"?>
<svg xmlns="http://www.w3.org/2000/svg" version="1.1"
  width="1024" height="1024" viewBox="0 0 1024 1024">
<path d="M 509.43,881.73 C 501.88,876.84 500.80,876.18 496.85,874.04 C 494.85,872.96 492.58,871.43 491.81,870.66 C 491.03,869.89 488.89,868.48 487.04,867.52 C 485.20,866.57 483.20,865.38 482.59,864.88 C 480.55,863.19 467.85,855.00 467.27,855.00 C 466.95,855.00 465.21,853.88 463.41,852.50 C 461.61,851.12 459.86,850.00 459.52,850.00 C 459.19,850.00 458.37,849.54 457.71,848.99 C 455.89,847.46 449.69,843.41 437.93,836.09 C 432.12,832.46 426.49,828.94 425.43,828.25 C 423.67,827.11 416.50,822.71 411.50,819.71 C 410.40,819.05 408.15,817.56 406.50,816.41 C 404.85,815.25 397.20,810.41 389.50,805.64 C 381.80,800.87 374.82,796.54 374.00,796.02 C 359.68,786.94 333.17,770.26 331.87,769.50 C 330.93,768.95 323.26,764.11 314.83,758.75 C 306.40,753.39 278.80,736.04 253.50,720.20 L 207.50,691.40 L 207.50,521.06 L 207.50,350.72 L 209.45,349.61 C 212.60,347.82 241.14,329.97 245.36,327.15 C 247.49,325.73 250.01,324.11 250.98,323.54 C 261.04,317.58 263.78,315.88 265.47,314.54 C 266.55,313.68 268.69,312.42 270.22,311.74 C 271.75,311.07 273.00,310.17 273.00,309.76 C 273.00,309.34 273.48,309.00 274.07,309.00 C 274.65,309.00 276.61,307.88 278.41,306.50 C 280.21,305.12 282.01,304.00 282.40,304.00 C 282.79,304.00 286.52,301.75 290.69,299.00 C 294.86,296.25 298.66,294.00 299.14,294.00 C 299.61,294.00 300.00,293.64 300.00,293.20 C 300.00,292.76 301.91,291.41 304.25,290.20 C 308.89,287.81 310.05,287.10 317.19,282.25 C 319.82,280.46 322.43,279.00 322.99,279.00 C 323.55,279.00 324.00,278.60 324.00,278.11 C 324.00,277.62 325.12,276.93 326.50,276.59 C 327.88,276.24 329.00,275.52 329.00,274.98 C 329.00,274.44 329.47,274.00 330.04,274.00 C 330.61,274.00 332.30,273.16 333.79,272.13 C 340.77,267.33 347.94,263.00 348.92,263.00 C 349.51,263.00 350.00,262.55 350.00,262.00 C 350.00,261.45 350.42,261.00 350.93,261.00 C 351.44,261.00 354.57,259.20 357.88,257.00 C 361.19,254.80 364.37,253.00 364.95,253.00 C 365.53,253.00 366.00,252.62 366.00,252.16 C 366.00,251.69 367.69,250.46 369.75,249.41 C 371.81,248.36 373.73,247.22 374.00,246.88 C 374.27,246.55 376.38,245.31 378.68,244.15 C 380.98,242.98 383.13,241.59 383.46,241.06 C 383.79,240.53 387.98,237.76 392.78,234.90 C 397.58,232.05 403.83,228.20 406.67,226.35 C 409.51,224.51 412.09,223.00 412.40,223.00 C 412.71,223.00 416.24,220.86 420.24,218.25 C 429.60,212.14 430.85,211.39 434.70,209.44 C 436.47,208.54 438.43,207.18 439.08,206.41 C 439.72,205.63 440.80,205.00 441.47,205.00 C 442.14,205.00 443.73,204.10 445.00,203.00 C 446.27,201.90 447.91,201.00 448.65,201.00 C 449.39,201.00 450.00,200.62 450.00,200.15 C 450.00,199.69 451.80,198.49 454.00,197.50 C 456.20,196.51 458.00,195.36 458.00,194.95 C 458.00,194.53 459.24,193.69 460.75,193.07 C 464.31,191.61 467.54,189.71 469.74,187.79 C 470.71,186.95 473.75,185.02 476.50,183.51 C 479.25,182.00 486.58,177.56 492.79,173.63 C 498.99,169.71 504.99,165.99 506.12,165.37 C 507.25,164.74 508.67,163.73 509.28,163.12 C 509.90,162.50 511.18,162.00 512.13,162.00 C 513.08,162.00 527.05,170.24 543.18,180.32 C 571.29,197.88 597.02,213.81 648.00,245.22 C 660.92,253.19 686.58,269.14 705.00,280.68 C 723.42,292.22 741.72,303.65 745.66,306.08 C 749.60,308.51 759.24,314.55 767.09,319.50 C 774.94,324.45 781.84,328.68 782.43,328.91 C 783.02,329.13 784.85,330.25 786.50,331.41 C 788.15,332.56 790.40,334.05 791.50,334.72 C 792.60,335.39 799.17,339.44 806.10,343.72 L 818.71,351.50 L 819.25,520.00 L 819.80,688.50 L 818.15,690.10 C 817.24,690.98 807.95,697.09 797.50,703.70 C 768.65,721.92 698.07,766.76 684.26,775.63 C 677.53,779.96 649.63,797.89 622.26,815.47 C 578.07,843.86 523.47,879.03 516.82,883.38 L 514.41,884.96 L 509.43,881.73 Z M 521.86,812.47 C 523.70,811.38 533.43,805.06 543.46,798.41 C 553.50,791.76 568.86,781.65 577.60,775.95 C 586.35,770.24 593.95,765.20 594.50,764.74 C 595.05,764.29 597.98,762.38 601.00,760.50 C 604.02,758.62 607.04,756.62 607.71,756.04 C 608.37,755.47 609.15,755.00 609.45,755.00 C 609.74,755.00 613.25,752.92 617.24,750.37 C 621.23,747.82 626.98,744.16 630.00,742.24 C 633.02,740.32 638.07,737.01 641.20,734.88 C 644.34,732.74 647.37,731.00 647.95,731.00 C 648.53,731.00 649.00,730.55 649.00,730.00 C 649.00,729.45 649.67,729.00 650.50,729.00 C 651.33,729.00 652.00,728.65 652.00,728.23 C 652.00,727.80 653.69,726.59 655.75,725.53 C 657.81,724.46 662.33,721.66 665.80,719.30 C 669.26,716.93 672.35,715.00 672.66,715.00 C 672.98,715.00 675.38,713.42 678.00,711.50 C 680.62,709.58 683.27,708.00 683.88,708.00 C 684.50,708.00 685.00,707.55 685.00,707.00 C 685.00,706.45 685.45,706.00 686.01,706.00 C 686.57,706.00 689.26,704.42 692.00,702.50 C 694.74,700.58 697.28,699.00 697.65,699.00 C 698.01,699.00 699.70,697.95 701.41,696.66 C 703.11,695.37 704.97,694.13 705.55,693.91 C 706.12,693.68 714.37,688.55 723.88,682.50 C 733.39,676.45 741.92,671.05 742.85,670.50 C 751.58,665.33 759.02,660.38 759.33,659.54 C 759.53,658.97 759.30,638.48 758.80,614.00 C 758.30,589.52 758.14,566.80 758.43,563.50 C 758.73,560.20 759.01,518.35 759.05,470.50 L 759.13,383.50 L 757.51,382.50 C 756.62,381.95 740.92,372.05 722.61,360.50 C 676.75,331.57 667.02,325.59 664.59,324.91 C 663.44,324.58 661.60,324.77 660.50,325.33 C 659.40,325.88 646.80,333.75 632.50,342.80 C 618.20,351.86 591.20,368.96 572.50,380.80 C 553.80,392.64 522.75,412.29 503.50,424.46 C 484.25,436.63 458.28,453.10 445.78,461.05 L 423.06,475.50 L 423.03,537.28 L 423.00,599.07 L 435.75,607.36 C 442.76,611.92 462.45,624.36 479.50,635.00 C 496.55,645.64 514.11,656.67 518.53,659.50 C 522.94,662.34 527.44,664.68 528.53,664.69 C 529.61,664.70 535.00,661.69 540.50,658.00 C 546.00,654.32 556.58,647.25 564.00,642.31 C 571.42,637.36 581.20,630.77 585.72,627.66 C 590.24,624.55 594.19,622.00 594.50,622.00 C 594.80,622.00 596.62,620.58 598.53,618.84 L 602.00,615.68 L 602.00,588.95 L 602.00,562.21 L 600.55,561.66 C 599.22,561.15 580.23,573.17 532.04,605.04 L 515.58,615.93 L 514.82,614.72 C 514.40,614.05 514.12,600.23 514.19,584.00 C 514.25,567.77 514.00,553.55 513.63,552.38 C 513.10,550.73 504.17,544.00 502.50,544.00 C 502.30,544.00 499.51,542.31 496.29,540.25 C 487.81,534.81 487.01,534.31 481.50,531.07 C 478.75,529.45 476.05,527.76 475.50,527.30 C 473.75,525.83 458.13,516.00 457.56,516.00 C 457.25,516.00 454.81,514.43 452.13,512.50 C 449.45,510.58 446.79,509.00 446.20,509.00 C 444.49,509.00 440.89,503.78 441.21,501.77 C 441.37,500.75 441.77,499.83 442.09,499.71 C 442.76,499.47 463.05,512.01 488.23,528.23 C 497.44,534.15 505.18,539.00 505.44,539.00 C 505.70,539.00 508.47,540.79 511.60,542.98 L 517.28,546.97 L 519.89,546.32 C 521.33,545.97 523.40,545.08 524.50,544.35 C 542.89,532.11 549.32,528.00 550.08,528.00 C 550.59,528.00 551.00,527.55 551.00,527.00 C 551.00,526.45 551.67,526.00 552.50,526.00 C 553.33,526.00 554.00,525.55 554.00,525.00 C 554.00,524.45 554.64,524.00 555.42,524.00 C 556.20,524.00 556.98,523.61 557.17,523.13 C 557.51,522.23 568.46,515.00 569.48,515.00 C 569.98,515.00 578.91,509.23 581.50,507.23 C 584.56,504.87 602.16,494.00 602.92,494.00 C 603.42,494.00 603.98,493.62 604.17,493.16 C 604.35,492.69 609.23,489.50 615.00,486.05 C 620.77,482.61 626.93,478.72 628.68,477.40 C 630.43,476.08 632.11,475.00 632.40,475.00 C 632.99,475.00 649.21,464.89 650.00,464.03 C 651.16,462.76 659.04,458.00 659.98,458.00 L 661.00,458.00 L 661.00,551.36 L 661.00,644.72 L 645.25,654.57 C 636.59,659.99 606.77,679.10 579.00,697.05 C 551.23,714.99 527.50,730.21 526.27,730.86 L 524.04,732.05 L 488.77,709.25 C 469.37,696.71 433.83,673.86 409.79,658.47 L 366.07,630.50 L 366.29,537.10 L 366.50,443.70 L 384.00,431.88 C 393.62,425.37 402.06,420.04 402.75,420.03 C 403.44,420.01 404.00,419.55 404.00,419.00 C 404.00,418.45 404.53,418.00 405.19,418.00 C 405.84,418.00 407.30,417.16 408.44,416.13 C 409.57,415.10 412.52,413.14 415.00,411.78 C 419.34,409.39 426.44,404.89 428.50,403.22 C 430.49,401.61 449.58,389.28 452.98,387.41 C 454.90,386.36 456.99,385.01 457.64,384.41 C 458.29,383.82 461.22,381.84 464.16,380.02 C 467.10,378.20 473.10,374.36 477.50,371.49 C 493.82,360.83 527.56,339.52 547.31,327.40 C 554.56,322.95 563.42,317.43 567.00,315.14 C 570.58,312.84 574.62,310.40 576.00,309.71 C 577.38,309.01 582.34,305.94 587.03,302.86 C 591.72,299.79 596.55,296.96 597.78,296.57 C 599.00,296.18 600.00,295.48 600.00,295.00 C 600.00,294.52 600.85,293.87 601.88,293.54 C 602.92,293.21 604.75,292.09 605.95,291.04 L 608.14,289.14 L 605.82,287.67 C 603.64,286.29 588.32,276.98 543.50,249.82 C 516.60,233.51 514.74,232.49 512.65,232.85 C 511.62,233.02 502.39,238.36 492.14,244.71 C 481.89,251.05 467.88,259.73 461.00,263.99 C 440.83,276.49 388.17,309.22 366.00,323.04 C 354.73,330.07 328.85,346.16 308.50,358.80 C 288.15,371.44 270.71,382.51 269.75,383.39 L 268.00,385.00 L 268.02,522.75 L 268.05,660.50 L 317.64,691.50 C 344.92,708.55 367.88,722.87 368.66,723.33 L 370.09,724.15 L 369.97,688.33 L 369.85,652.50 L 372.10,652.77 C 373.33,652.92 374.94,653.53 375.67,654.14 L 377.00,655.24 L 377.00,691.87 L 377.01,728.50 L 400.75,743.45 C 436.32,765.83 461.74,781.98 489.36,799.76 L 514.22,815.77 L 516.36,815.10 C 517.54,814.73 520.01,813.55 521.86,812.47 Z M 518.00,770.88 L 518.00,741.95 L 520.85,743.42 L 523.70,744.89 L 524.37,754.47 C 525.14,765.35 524.63,793.74 523.63,796.00 C 523.26,796.83 521.85,798.02 520.48,798.66 L 518.00,799.81 L 518.00,770.88 Z M 326.00,603.46 C 310.88,594.46 295.91,585.52 292.75,583.59 L 287.00,580.09 L 287.00,577.04 L 287.00,574.00 L 288.57,574.00 C 289.44,574.00 290.76,574.61 291.51,575.36 C 292.67,576.53 308.52,586.07 322.68,594.12 C 336.99,602.26 353.23,612.45 353.66,613.54 C 353.93,614.25 354.00,615.96 353.82,617.33 L 353.50,619.83 L 326.00,603.46 Z M 347.36,448.74 C 327.02,437.02 288.39,412.98 287.34,411.39 C 285.96,409.28 286.42,406.00 288.10,406.00 C 288.59,406.00 291.13,407.51 293.75,409.37 C 298.95,413.05 327.46,430.00 328.46,430.00 C 328.80,430.00 330.30,430.85 331.79,431.88 C 333.28,432.91 338.68,436.36 343.79,439.53 C 348.89,442.71 353.32,445.71 353.62,446.20 C 354.30,447.30 352.16,450.01 350.63,449.99 C 350.01,449.98 348.53,449.41 347.36,448.74 Z" fill="#000000" fill-rule="evenodd" stroke="none"/>
</svg>