<?xml version="1.0" encoding="UTF-8"?>
<svg xmlns="http://www.w3.org/2000/svg" version="1.1"
  width="1024" height="1536" viewBox="0 0 1024 1536">
<path d="M 175.13,1227.46 C 171.63,1226.70 165.84,1224.71 162.27,1223.04 L 155.77,1220.00 L 148.60,1212.75 L 141.42,1205.50 L 137.73,1198.39 C 135.70,1194.47 133.31,1188.17 132.41,1184.39 L 130.79,1177.50 L 131.28,1166.00 L 131.77,1154.50 L 134.21,1147.88 C 137.74,1138.33 141.56,1132.27 148.13,1125.82 C 158.05,1116.07 168.56,1111.33 182.51,1110.32 C 193.56,1109.52 203.26,1111.35 213.07,1116.09 L 221.17,1120.01 L 227.15,1125.99 C 230.44,1129.28 232.87,1132.40 232.55,1132.91 C 232.23,1133.43 228.34,1136.40 223.91,1139.50 L 215.84,1145.16 L 211.67,1140.99 C 206.16,1135.49 201.11,1133.01 193.14,1131.88 L 186.57,1130.95 L 181.04,1132.07 C 174.70,1133.35 167.55,1137.09 164.19,1140.89 C 155.64,1150.56 152.62,1171.64 157.61,1186.84 L 159.37,1192.19 L 163.91,1197.25 L 168.46,1202.30 L 174.48,1205.15 L 180.50,1208.00 L 189.00,1207.99 L 197.50,1207.98 L 202.50,1205.62 C 205.25,1204.33 208.49,1202.19 209.70,1200.87 C 212.57,1197.75 215.00,1191.86 215.00,1188.03 L 215.00,1185.00 L 202.00,1185.00 L 189.00,1185.00 L 189.00,1174.50 L 189.00,1164.00 L 190.25,1163.93 C 192.88,1163.78 200.12,1163.77 217.75,1163.88 L 236.00,1164.00 L 236.00,1183.86 L 236.00,1203.71 L 232.61,1208.15 C 228.58,1213.43 220.53,1219.76 213.13,1223.47 C 202.65,1228.72 188.01,1230.25 175.13,1227.46 Z M 265.64,1187.28 C 265.28,1165.40 265.10,1139.62 265.24,1130.00 L 265.50,1112.50 L 289.00,1112.19 L 312.50,1111.88 L 320.81,1113.58 L 329.13,1115.28 L 334.81,1118.96 C 343.72,1124.73 348.62,1133.13 349.68,1144.44 C 350.40,1152.18 348.80,1159.52 344.66,1167.40 L 341.56,1173.30 L 336.69,1177.15 C 334.01,1179.27 331.52,1181.01 331.16,1181.02 C 330.80,1181.02 329.88,1181.42 329.12,1181.90 L 327.75,1182.77 L 335.85,1195.82 C 349.57,1217.90 352.95,1223.98 352.35,1225.52 L 351.79,1227.00 L 340.59,1227.00 L 329.40,1227.00 L 325.05,1219.75 C 322.65,1215.76 317.92,1207.55 314.52,1201.50 C 311.13,1195.45 307.71,1189.47 306.92,1188.22 L 305.50,1185.94 L 297.50,1186.22 L 289.50,1186.50 L 289.50,1206.50 L 289.50,1226.50 L 277.90,1226.78 L 266.29,1227.06 L 265.64,1187.28 Z M 314.79,1164.47 L 319.94,1162.94 L 322.67,1159.37 L 325.39,1155.80 L 325.75,1150.15 L 326.11,1144.50 L 324.30,1141.07 C 323.26,1139.08 320.82,1136.77 318.50,1135.57 L 314.50,1133.50 L 301.75,1133.15 L 289.00,1132.80 L 289.00,1149.40 L 289.00,1166.00 L 299.32,1166.00 L 309.64,1166.00 L 314.79,1164.47 Z M 381.67,1226.33 C 381.30,1225.97 381.00,1200.09 381.00,1168.83 L 381.00,1112.00 L 417.50,1112.00 L 454.00,1112.00 L 454.00,1123.00 L 454.00,1134.00 L 429.47,1134.00 L 404.94,1134.00 L 405.22,1146.25 L 405.50,1158.50 L 428.00,1158.50 L 450.50,1158.50 L 450.50,1168.50 L 450.50,1178.50 L 427.72,1178.77 L 404.94,1179.04 L 405.22,1192.27 L 405.50,1205.50 L 430.50,1206.00 L 455.50,1206.50 L 455.72,1214.50 C 455.83,1218.90 455.71,1223.51 455.45,1224.75 L 454.96,1227.00 L 418.65,1227.00 C 398.67,1227.00 382.03,1226.70 381.67,1226.33 Z M 488.00,1169.50 L 488.00,1112.00 L 524.00,1112.00 L 560.00,1112.00 L 560.00,1123.00 L 560.00,1134.00 L 535.97,1134.00 L 511.94,1134.00 L 512.22,1146.25 L 512.50,1158.50 L 534.75,1158.77 L 557.00,1159.04 L 557.00,1167.44 C 557.00,1172.06 557.27,1176.55 557.61,1177.42 L 558.21,1179.00 L 535.11,1179.00 L 512.00,1179.00 L 512.00,1192.50 L 512.00,1206.00 L 537.50,1206.00 L 563.00,1206.00 L 563.00,1216.50 L 563.00,1227.00 L 525.50,1227.00 L 488.00,1227.00 L 488.00,1169.50 Z M 595.00,1169.45 L 595.00,1111.75 L 620.75,1112.28 L 646.50,1112.82 L 651.54,1114.26 C 662.21,1117.32 668.19,1121.69 672.32,1129.45 L 674.48,1133.50 L 674.48,1142.00 L 674.48,1150.50 L 672.30,1154.59 C 669.77,1159.34 663.94,1164.78 659.84,1166.20 C 658.28,1166.75 657.00,1167.51 657.00,1167.89 C 657.00,1168.27 658.97,1169.11 661.37,1169.75 C 667.52,1171.40 673.94,1176.64 676.94,1182.47 L 679.48,1187.42 L 679.42,1195.08 L 679.36,1202.75 L 676.62,1208.34 C 673.13,1215.47 666.57,1221.24 658.69,1224.11 L 652.50,1226.36 L 623.75,1226.76 L 595.00,1227.16 L 595.00,1169.45 Z M 646.87,1205.45 L 652.09,1203.89 L 654.04,1200.70 L 655.99,1197.50 L 656.00,1192.28 L 656.00,1187.07 L 652.91,1183.55 C 651.14,1181.54 648.25,1179.61 646.16,1179.05 C 642.98,1178.19 630.84,1177.63 621.50,1177.91 L 618.50,1178.00 L 618.50,1192.50 L 618.50,1207.00 L 630.07,1207.00 L 641.64,1207.00 L 646.87,1205.45 Z M 645.73,1156.53 C 651.40,1153.13 653.64,1145.07 650.57,1139.13 C 649.75,1137.56 647.29,1135.53 644.85,1134.43 L 640.57,1132.50 L 629.59,1132.50 L 618.60,1132.50 L 618.78,1145.50 C 618.88,1152.65 618.97,1158.66 618.98,1158.86 C 618.99,1159.05 624.29,1159.04 630.75,1158.84 L 642.50,1158.47 L 645.73,1156.53 Z M 710.00,1169.51 L 710.00,1112.00 L 722.00,1112.00 L 734.00,1112.00 L 734.00,1159.00 L 734.00,1206.00 L 758.03,1206.00 L 782.07,1206.00 L 781.78,1216.25 L 781.50,1226.50 L 745.75,1226.76 L 710.00,1227.03 L 710.00,1169.51 Z M 808.00,1169.51 L 808.00,1112.00 L 843.50,1112.00 L 879.00,1112.00 L 879.00,1123.00 L 879.00,1134.00 L 855.50,1134.00 L 832.00,1134.00 L 832.00,1146.50 L 832.00,1159.00 L 854.00,1159.00 L 876.00,1159.00 L 876.00,1169.00 L 876.00,1179.00 L 854.00,1179.00 L 832.00,1179.00 L 832.00,1192.48 L 832.00,1205.97 L 856.75,1206.23 L 881.50,1206.50 L 881.50,1216.50 L 881.50,1226.50 L 844.75,1226.76 L 808.00,1227.02 L 808.00,1169.51 Z M 480.49,1026.11 C 447.59,1005.09 329.47,930.76 247.50,879.49 L 207.50,854.47 L 207.25,684.40 L 206.99,514.33 L 222.25,504.81 C 230.64,499.56 256.62,483.36 280.00,468.79 C 303.38,454.22 345.45,427.99 373.50,410.49 C 401.55,393.00 431.93,374.19 441.00,368.69 C 450.07,363.19 469.41,351.26 483.96,342.19 C 498.51,333.12 511.14,325.52 512.01,325.29 C 512.88,325.06 525.21,332.12 539.42,340.99 C 573.98,362.55 603.97,381.10 624.00,393.31 C 633.08,398.83 656.25,413.24 675.50,425.31 C 694.75,437.39 719.05,452.56 729.50,459.02 C 739.95,465.49 764.02,480.51 783.00,492.39 C 801.97,504.27 817.78,514.11 818.13,514.25 C 818.47,514.39 819.03,590.04 819.36,682.36 L 819.96,850.21 L 818.97,852.05 C 818.43,853.06 814.03,856.33 809.19,859.33 C 783.79,875.04 623.22,977.70 545.12,1028.17 C 529.52,1038.25 516.24,1046.80 515.62,1047.16 C 514.99,1047.53 499.19,1038.06 480.49,1026.11 Z M 552.24,955.64 C 571.63,942.80 604.83,921.26 626.00,907.79 C 647.17,894.31 675.75,876.12 689.50,867.36 C 703.25,858.60 724.74,844.98 737.25,837.09 L 760.01,822.75 L 759.75,684.76 L 759.50,546.78 L 746.00,538.26 C 697.65,507.73 665.29,487.63 664.00,487.32 C 662.48,486.95 655.84,490.97 612.50,518.49 C 599.30,526.87 570.50,545.11 548.50,559.03 C 526.50,572.94 491.18,595.34 470.00,608.81 C 448.82,622.28 429.60,634.47 427.28,635.90 L 423.06,638.50 L 423.03,700.22 L 423.00,761.94 L 430.25,766.81 C 434.24,769.49 455.50,782.94 477.50,796.69 C 499.50,810.44 520.00,823.29 523.05,825.25 L 528.61,828.81 L 552.55,812.90 C 565.72,804.15 582.23,793.28 589.24,788.74 L 601.98,780.50 L 602.03,760.00 C 602.06,748.73 602.18,735.79 602.29,731.25 C 602.41,726.71 602.13,723.00 601.69,723.00 C 600.93,723.00 587.00,732.00 537.19,764.68 C 526.01,772.00 516.45,778.00 515.94,778.00 C 515.37,778.00 515.00,765.45 515.00,746.65 L 515.00,715.31 L 513.25,713.83 C 512.29,713.02 496.88,703.25 479.00,692.12 C 461.12,680.99 445.45,671.10 444.17,670.13 L 441.85,668.37 L 442.17,665.32 L 442.50,662.26 L 454.50,669.82 C 461.10,673.98 478.34,684.92 492.82,694.12 L 519.14,710.87 L 527.32,705.59 C 531.82,702.68 542.25,695.90 550.50,690.51 C 563.54,682.01 609.24,652.90 647.64,628.66 C 654.31,624.45 660.05,621.00 660.39,621.00 C 660.72,621.00 661.00,663.04 661.00,714.42 L 661.00,807.84 L 657.25,810.10 C 648.28,815.53 620.22,833.46 576.00,862.02 C 549.88,878.89 527.50,893.22 526.28,893.87 L 524.05,895.04 L 503.51,881.77 C 472.09,861.48 439.00,840.21 400.77,815.73 L 366.04,793.50 L 366.27,700.00 L 366.50,606.50 L 372.00,602.84 C 375.02,600.83 405.40,581.31 439.50,559.47 C 499.86,520.80 529.60,502.02 582.00,469.51 C 596.02,460.80 607.73,453.48 608.00,453.23 C 608.72,452.58 606.79,451.34 575.13,432.09 C 519.78,398.42 513.76,394.88 512.63,395.31 C 511.54,395.73 420.71,451.93 371.50,482.64 C 352.68,494.38 281.93,538.41 270.25,545.65 L 268.00,547.05 L 268.02,685.27 L 268.04,823.50 L 301.77,844.49 C 320.32,856.03 342.83,870.11 351.80,875.79 C 360.76,881.46 368.76,886.36 369.58,886.67 L 371.07,887.24 L 370.79,851.12 C 370.63,831.25 370.78,815.00 371.12,815.00 C 371.45,815.00 372.92,815.93 374.37,817.07 L 377.00,819.15 L 377.00,855.32 L 377.01,891.50 L 395.25,902.95 C 421.05,919.14 487.22,961.23 502.04,970.87 C 508.89,975.34 515.06,978.99 515.74,978.99 C 516.42,979.00 532.84,968.49 552.24,955.64 Z M 517.78,934.05 C 517.63,918.07 517.85,905.00 518.29,905.00 C 518.72,905.00 520.18,905.73 521.54,906.62 L 524.00,908.23 L 524.00,933.55 L 524.00,958.86 L 521.03,960.98 L 518.06,963.09 L 517.78,934.05 Z M 331.50,769.64 C 319.40,762.41 304.66,753.67 298.75,750.23 L 288.00,743.97 L 288.00,740.48 C 288.00,738.57 288.26,737.00 288.57,737.00 C 288.88,737.00 291.02,738.27 293.32,739.82 C 295.62,741.37 302.45,745.49 308.50,748.97 C 336.09,764.88 353.18,775.30 353.64,776.51 C 353.92,777.24 354.00,778.95 353.82,780.32 L 353.50,782.80 L 331.50,769.64 Z M 319.00,594.63 L 288.50,576.33 L 288.18,572.52 L 287.86,568.72 L 291.18,570.90 C 293.01,572.09 302.15,577.61 311.50,583.16 C 338.97,599.46 352.92,608.06 353.57,609.11 C 354.29,610.29 352.21,613.02 350.63,612.96 C 350.01,612.94 335.77,604.69 319.00,594.63 Z" fill="#FFFFFF" fill-rule="evenodd" stroke="none"/>
</svg>