<?xml version="1.0" encoding="UTF-8"?>
<svg xmlns="http://www.w3.org/2000/svg" version="1.1"
  width="1024" height="1536" viewBox="0 0 1024 1536">
<path d="M 175.13,1227.46 C 171.63,1226.70 165.84,1224.71 162.27,1223.04 L 155.77,1220.00 L 148.60,1212.75 L 141.42,1205.50 L 137.73,1198.39 C 135.70,1194.47 133.31,1188.17 132.41,1184.39 L 130.79,1177.50 L 131.28,1166.00 L 131.77,1154.50 L 134.21,1147.88 C 135.56,1144.24 137.94,1139.06 139.50,1136.38 C 142.96,1130.45 152.34,1121.06 158.29,1117.57 C 169.22,1111.17 184.19,1108.67 197.85,1110.98 L 205.20,1112.21 L 213.35,1116.29 L 221.50,1120.36 L 227.25,1126.10 C 230.41,1129.26 232.98,1132.21 232.96,1132.67 C 232.93,1133.13 229.06,1136.11 224.36,1139.31 L 215.81,1145.12 L 211.65,1140.98 C 206.30,1135.63 201.29,1133.10 193.65,1131.86 L 187.50,1130.87 L 181.43,1132.01 C 174.42,1133.34 167.42,1137.13 163.61,1141.67 C 155.42,1151.45 152.70,1171.88 157.61,1186.84 L 159.37,1192.19 L 163.91,1197.25 L 168.46,1202.30 L 174.48,1205.15 L 180.50,1208.00 L 189.00,1207.99 L 197.50,1207.98 L 202.50,1205.62 C 205.25,1204.33 208.49,1202.19 209.70,1200.87 C 212.57,1197.75 215.00,1191.86 215.00,1188.03 L 215.00,1185.00 L 202.00,1185.00 L 189.00,1185.00 L 189.00,1174.50 L 189.00,1164.00 L 212.50,1164.00 L 236.00,1164.00 L 236.00,1183.84 L 236.00,1203.67 L 232.40,1208.29 C 219.74,1224.54 196.90,1232.18 175.13,1227.46 Z M 265.63,1187.28 C 265.26,1165.40 265.08,1139.62 265.23,1130.00 L 265.50,1112.50 L 289.00,1112.19 L 312.50,1111.88 L 320.81,1113.58 L 329.13,1115.28 L 334.81,1118.96 C 343.72,1124.73 348.62,1133.13 349.68,1144.44 C 350.40,1152.18 348.80,1159.52 344.66,1167.40 L 341.56,1173.30 L 336.69,1177.15 C 334.01,1179.27 331.52,1181.01 331.16,1181.02 C 330.80,1181.02 329.88,1181.42 329.12,1181.90 L 327.75,1182.77 L 335.87,1195.85 C 345.77,1211.78 354.00,1225.67 354.00,1226.43 C 354.00,1226.75 348.46,1227.00 341.70,1227.00 L 329.39,1227.00 L 320.95,1212.47 C 316.30,1204.48 310.94,1195.24 309.04,1191.94 L 305.59,1185.93 L 297.54,1186.21 L 289.50,1186.50 L 289.50,1206.50 L 289.50,1226.50 L 277.90,1226.78 L 266.30,1227.06 L 265.63,1187.28 Z M 314.79,1164.47 L 319.94,1162.94 L 322.67,1159.37 L 325.39,1155.80 L 325.75,1150.15 L 326.11,1144.50 L 324.30,1141.07 C 323.26,1139.08 320.82,1136.77 318.50,1135.57 L 314.50,1133.50 L 301.75,1133.17 L 289.00,1132.84 L 289.00,1149.42 L 289.00,1166.00 L 299.32,1166.00 L 309.64,1166.00 L 314.79,1164.47 Z M 381.46,1225.76 C 381.20,1225.07 381.10,1199.30 381.24,1168.50 L 381.50,1112.50 L 417.75,1112.24 L 454.00,1111.98 L 454.00,1122.99 L 454.00,1134.00 L 429.47,1134.00 L 404.94,1134.00 L 405.22,1146.25 L 405.50,1158.50 L 428.25,1158.38 L 451.00,1158.25 L 451.00,1168.63 L 451.00,1179.00 L 427.97,1179.00 L 404.94,1179.00 L 405.22,1192.25 L 405.50,1205.50 L 430.78,1205.77 L 456.07,1206.03 L 455.78,1216.27 L 455.50,1226.50 L 418.72,1226.76 L 381.95,1227.02 L 381.46,1225.76 Z M 488.00,1169.50 L 488.00,1112.00 L 524.00,1112.00 L 560.00,1112.00 L 560.00,1123.00 L 560.00,1134.00 L 535.97,1134.00 L 511.94,1134.00 L 512.22,1146.25 L 512.50,1158.50 L 534.75,1158.77 L 557.00,1159.04 L 557.00,1169.02 L 557.00,1179.00 L 534.50,1179.00 L 512.00,1179.00 L 512.00,1192.50 L 512.00,1206.00 L 537.50,1206.00 L 563.00,1206.00 L 563.00,1216.50 L 563.00,1227.00 L 525.50,1227.00 L 488.00,1227.00 L 488.00,1169.50 Z M 595.00,1169.45 L 595.00,1111.75 L 620.75,1112.28 L 646.50,1112.82 L 651.54,1114.26 C 662.21,1117.32 668.19,1121.69 672.32,1129.45 L 674.48,1133.50 L 674.49,1142.00 L 674.50,1150.50 L 671.77,1155.14 C 668.71,1160.35 663.90,1164.79 659.76,1166.23 C 658.24,1166.76 657.00,1167.51 657.00,1167.89 C 657.00,1168.27 658.97,1169.11 661.37,1169.75 C 667.52,1171.40 673.94,1176.64 676.94,1182.47 L 679.48,1187.42 L 679.42,1195.08 L 679.36,1202.75 L 676.62,1208.34 C 673.15,1215.45 667.02,1220.84 658.89,1223.95 L 652.50,1226.39 L 623.75,1226.78 L 595.00,1227.16 L 595.00,1169.45 Z M 646.87,1205.45 L 652.09,1203.89 L 654.04,1200.70 L 655.99,1197.50 L 656.00,1192.28 L 656.00,1187.07 L 652.91,1183.55 C 651.08,1181.47 648.25,1179.61 645.98,1178.99 C 642.39,1178.03 620.34,1177.30 619.56,1178.13 C 619.17,1178.53 618.69,1195.89 618.88,1202.75 L 619.00,1207.00 L 630.32,1207.00 L 641.64,1207.00 L 646.87,1205.45 Z M 645.73,1156.53 C 651.40,1153.13 653.64,1145.07 650.57,1139.13 C 649.75,1137.56 647.29,1135.53 644.85,1134.43 L 640.57,1132.50 L 629.59,1132.50 L 618.60,1132.50 L 618.78,1145.50 C 618.88,1152.65 618.97,1158.66 618.98,1158.86 C 618.99,1159.05 624.29,1159.04 630.75,1158.84 L 642.50,1158.47 L 645.73,1156.53 Z M 710.00,1169.50 L 710.00,1112.00 L 722.00,1112.00 L 734.00,1112.00 L 734.00,1159.00 L 734.00,1206.00 L 758.00,1206.00 L 782.00,1206.00 L 782.00,1216.50 L 782.00,1227.00 L 746.00,1227.00 L 710.00,1227.00 L 710.00,1169.50 Z M 808.67,1226.33 C 808.30,1225.97 808.00,1200.09 808.00,1168.83 L 808.00,1112.00 L 843.50,1112.00 L 879.00,1112.00 L 879.00,1123.00 L 879.00,1134.00 L 855.50,1134.00 L 832.00,1134.00 L 832.00,1146.50 L 832.00,1159.00 L 854.00,1159.00 L 876.00,1159.00 L 876.00,1169.00 L 876.00,1179.00 L 854.00,1179.00 L 832.00,1179.00 L 832.00,1192.50 L 832.00,1206.00 L 857.00,1206.00 L 882.00,1206.00 L 882.00,1216.50 L 882.00,1227.00 L 845.67,1227.00 C 825.68,1227.00 809.03,1226.70 808.67,1226.33 Z M 480.50,1026.13 C 447.73,1005.18 330.45,931.37 247.50,879.49 L 207.50,854.47 L 207.25,684.43 L 206.99,514.38 L 222.25,504.83 C 230.64,499.57 260.23,481.11 288.00,463.81 C 315.77,446.50 358.75,419.73 383.50,404.31 C 408.25,388.89 435.02,372.31 443.00,367.47 C 450.98,362.63 469.41,351.25 483.96,342.19 C 498.51,333.12 511.14,325.51 512.02,325.28 C 512.90,325.05 526.87,333.13 543.06,343.23 C 579.70,366.08 616.21,388.67 630.00,397.02 C 635.77,400.51 655.58,412.82 674.00,424.36 C 692.42,435.91 719.20,452.64 733.50,461.55 C 747.80,470.45 772.55,485.89 788.50,495.86 C 804.45,505.82 817.78,514.10 818.12,514.24 C 818.45,514.38 818.90,590.54 819.12,683.48 L 819.50,852.46 L 814.00,856.14 C 810.98,858.17 780.15,877.81 745.50,899.80 C 689.41,935.38 630.11,973.36 546.62,1027.18 C 531.84,1036.70 518.56,1045.26 517.12,1046.18 L 514.50,1047.86 L 480.50,1026.13 Z M 538.28,964.86 C 577.16,938.94 592.51,929.05 693.50,864.86 C 709.45,854.73 730.94,841.10 741.25,834.58 L 760.01,822.73 L 759.75,684.75 L 759.50,546.78 L 746.00,538.26 C 697.65,507.73 665.29,487.63 664.00,487.32 C 662.48,486.95 655.84,490.97 612.50,518.49 C 599.30,526.87 569.83,545.54 547.00,559.97 C 524.17,574.40 486.95,597.97 464.27,612.35 L 423.05,638.50 L 423.02,700.28 L 423.00,762.07 L 434.25,769.39 C 440.44,773.41 458.32,784.71 474.00,794.48 C 489.68,804.25 508.35,815.96 515.50,820.50 L 528.49,828.75 L 533.50,825.53 C 536.25,823.76 552.67,812.94 570.00,801.48 C 587.33,790.03 601.61,780.59 601.74,780.50 C 602.20,780.21 602.08,723.75 601.62,723.29 C 601.21,722.87 573.42,740.75 531.00,768.72 L 515.50,778.95 L 515.24,747.12 L 514.97,715.29 L 513.24,713.82 C 512.28,713.02 496.88,703.25 479.00,692.12 C 461.12,680.99 445.45,671.10 444.17,670.13 L 441.85,668.37 L 442.17,665.34 L 442.50,662.31 L 465.00,676.48 C 477.38,684.28 494.61,695.21 503.30,700.77 L 519.10,710.89 L 527.30,705.60 C 531.81,702.69 542.25,695.90 550.50,690.51 C 579.51,671.58 659.54,621.00 660.49,621.00 C 660.77,621.00 661.00,663.04 661.00,714.42 L 661.00,807.84 L 657.25,810.10 C 648.28,815.53 620.22,833.46 576.00,862.02 C 549.88,878.89 527.50,893.22 526.27,893.87 L 524.04,895.05 L 506.77,883.87 C 483.40,868.75 437.34,839.15 398.27,814.13 L 366.05,793.50 L 366.27,700.00 L 366.50,606.50 L 372.00,602.85 C 375.02,600.84 405.40,581.32 439.50,559.47 C 499.83,520.82 529.48,502.10 582.00,469.51 C 596.02,460.80 607.73,453.48 608.00,453.23 C 608.73,452.58 606.82,451.35 573.64,431.17 C 519.35,398.15 513.77,394.87 512.63,395.31 C 511.54,395.73 420.67,451.96 371.50,482.64 C 352.68,494.38 281.93,538.41 270.25,545.65 L 268.00,547.05 L 268.00,684.87 L 268.00,822.69 L 269.75,824.19 C 270.71,825.01 286.57,835.07 305.00,846.53 C 323.43,857.99 345.18,871.59 353.34,876.75 C 361.50,881.91 368.81,886.37 369.59,886.67 L 371.00,887.21 L 371.00,851.15 L 371.00,815.09 L 373.99,816.80 L 376.99,818.50 L 377.00,855.00 L 377.01,891.50 L 395.25,902.95 C 424.94,921.58 492.95,964.89 508.00,974.74 C 511.57,977.08 515.08,979.00 515.78,979.00 C 516.48,979.00 526.61,972.64 538.28,964.86 Z M 518.00,934.04 L 518.00,904.95 L 521.00,906.50 L 524.00,908.05 L 524.00,933.46 L 524.00,958.86 L 521.00,961.00 L 518.00,963.14 L 518.00,934.04 Z M 331.50,769.64 C 319.40,762.41 304.66,753.67 298.75,750.23 L 288.00,743.97 L 288.00,740.39 L 288.00,736.80 L 291.75,739.06 C 293.81,740.30 302.02,745.11 310.00,749.76 C 340.17,767.35 353.19,775.34 353.66,776.57 C 353.93,777.26 354.00,778.95 353.82,780.32 L 353.50,782.80 L 331.50,769.64 Z M 319.00,594.63 L 288.50,576.33 L 288.18,572.52 L 287.86,568.72 L 291.18,570.90 C 293.01,572.09 302.15,577.61 311.50,583.16 C 338.97,599.46 352.92,608.06 353.57,609.11 C 354.29,610.29 352.21,613.02 350.63,612.96 C 350.01,612.94 335.77,604.69 319.00,594.63 Z" fill="#000000" fill-rule="evenodd" stroke="none"/>
</svg>