<?xml version="1.0" encoding="UTF-8"?>
<svg xmlns="http://www.w3.org/2000/svg" version="1.1"
  width="1024" height="1024" viewBox="0 0 1024 1024">
<path d="M 480.49,863.11 C 447.59,842.09 329.47,767.76 247.50,716.49 L 207.50,691.47 L 207.25,521.40 L 206.99,351.33 L 222.25,341.81 C 230.64,336.56 256.62,320.36 280.00,305.79 C 303.38,291.22 345.45,264.99 373.50,247.49 C 401.55,230.00 431.93,211.19 441.00,205.69 C 450.07,200.19 469.41,188.26 483.96,179.19 C 498.51,170.12 511.14,162.52 512.01,162.29 C 512.88,162.06 525.21,169.12 539.42,177.99 C 573.98,199.55 603.97,218.10 624.00,230.31 C 633.08,235.83 656.25,250.24 675.50,262.31 C 694.75,274.39 719.05,289.56 729.50,296.02 C 739.95,302.49 764.02,317.51 783.00,329.39 C 801.97,341.27 817.78,351.11 818.13,351.25 C 818.48,351.39 818.93,427.54 819.13,520.48 L 819.50,689.46 L 814.00,693.14 C 810.98,695.16 780.15,714.82 745.50,736.81 C 685.65,774.81 607.36,824.96 545.12,865.17 C 529.52,875.25 516.24,883.80 515.62,884.16 C 514.99,884.53 499.19,875.06 480.49,863.11 Z M 552.24,792.64 C 571.63,779.80 604.83,758.26 626.00,744.79 C 647.17,731.31 675.75,713.12 689.50,704.36 C 703.25,695.60 724.74,681.98 737.25,674.09 L 760.01,659.75 L 759.75,521.76 L 759.50,383.78 L 746.00,375.26 C 697.65,344.73 665.29,324.63 664.00,324.32 C 662.48,323.95 655.99,327.88 612.50,355.48 C 599.30,363.86 581.52,375.12 573.00,380.50 C 548.61,395.89 515.98,416.60 470.50,445.54 C 447.40,460.24 427.27,472.99 425.76,473.88 L 423.01,475.50 L 423.01,537.22 L 423.00,598.94 L 430.25,603.81 C 434.24,606.49 455.50,619.94 477.50,633.69 C 499.50,647.44 520.00,660.29 523.05,662.25 L 528.61,665.81 L 552.55,649.90 C 565.72,641.15 582.23,630.28 589.24,625.74 L 601.98,617.50 L 602.03,597.00 C 602.06,585.73 602.18,572.79 602.29,568.25 C 602.41,563.71 602.13,560.00 601.69,560.00 C 600.93,560.00 587.00,569.00 537.19,601.68 C 526.01,609.00 516.45,615.00 515.94,615.00 C 515.37,615.00 515.00,602.45 515.00,583.65 L 515.00,552.31 L 513.25,550.83 C 512.29,550.02 496.88,540.25 479.00,529.12 C 461.12,517.99 445.45,508.10 444.17,507.13 L 441.85,505.37 L 442.17,502.32 L 442.50,499.26 L 454.50,506.82 C 461.10,510.98 478.34,521.92 492.82,531.12 L 519.14,547.87 L 527.32,542.59 C 531.82,539.68 542.25,532.90 550.50,527.51 C 563.36,519.12 604.20,493.11 647.49,465.75 C 654.08,461.58 659.82,458.39 660.24,458.65 C 660.66,458.91 661.00,500.90 661.00,551.98 L 661.00,644.84 L 657.25,647.10 C 647.76,652.85 619.61,670.86 575.50,699.42 L 527.50,730.50 L 524.50,730.50 L 521.50,730.50 L 502.23,718.00 C 477.73,702.10 444.80,680.92 400.77,652.73 L 366.04,630.50 L 366.27,537.00 L 366.50,443.50 L 372.00,439.84 C 375.02,437.83 405.40,418.31 439.50,396.47 C 499.86,357.80 529.60,339.02 582.00,306.51 C 596.02,297.80 607.73,290.48 608.00,290.23 C 608.72,289.58 606.79,288.34 575.13,269.09 C 519.78,235.42 513.76,231.88 512.63,232.31 C 511.41,232.78 445.91,273.29 387.00,310.00 C 366.93,322.51 332.73,343.80 311.00,357.30 C 289.27,370.81 270.71,382.45 269.74,383.18 L 267.97,384.50 L 267.97,522.40 C 267.96,598.24 268.08,660.39 268.23,660.52 C 268.38,660.64 286.70,672.10 308.95,685.97 C 331.19,699.85 353.60,713.88 358.73,717.15 C 363.87,720.41 368.74,723.35 369.57,723.67 L 371.07,724.24 L 370.79,688.22 C 370.63,668.40 370.73,652.28 371.00,652.39 C 371.27,652.50 372.74,653.21 374.25,653.97 L 377.00,655.34 L 377.00,691.92 L 377.01,728.50 L 395.25,739.95 C 421.05,756.14 487.22,798.23 502.04,807.87 C 508.89,812.34 515.06,815.99 515.74,815.99 C 516.42,816.00 532.84,805.49 552.24,792.64 Z M 517.78,771.05 L 517.50,742.00 L 518.56,742.00 C 519.15,742.00 520.61,742.92 521.81,744.04 L 524.00,746.08 L 524.00,770.97 L 524.00,795.86 L 521.03,797.98 L 518.06,800.09 L 517.78,771.05 Z M 330.50,606.15 C 318.95,599.19 304.66,590.67 298.75,587.23 L 288.00,580.97 L 288.00,577.48 C 288.00,575.57 288.27,574.00 288.60,574.00 C 288.92,574.00 290.39,574.85 291.85,575.89 C 293.31,576.92 303.95,583.29 315.50,590.03 C 327.05,596.77 340.32,604.58 345.00,607.39 L 353.50,612.50 L 353.81,615.75 L 354.13,619.00 L 352.81,618.91 C 352.09,618.86 342.05,613.12 330.50,606.15 Z M 319.00,431.63 L 288.50,413.33 L 288.18,409.52 L 287.86,405.72 L 291.18,407.90 C 293.01,409.09 302.15,414.61 311.50,420.16 C 338.97,436.46 352.92,445.06 353.57,446.11 C 354.29,447.29 352.21,450.02 350.63,449.96 C 350.01,449.94 335.77,441.69 319.00,431.63 Z" fill="#FFFFFF" fill-rule="evenodd" stroke="none"/>
</svg>